<svg viewBox="0 0 12 12" fill="none" xmlns="http://www.w3.org/2000/svg">
<path d="M11.6442 2.45173L6.24419 0.0517495C6.08879 -0.0172498 5.9118 -0.0172498 5.7564 0.0517495L0.356396 2.45173C0.139796 2.54773 0 2.76309 0 3.00009V9.00003C0 9.23703 0.139796 9.45186 0.356396 9.54846L5.7564 11.9484C5.8338 11.9832 5.9172 12 6 12C6.0828 12 6.1662 11.9826 6.2436 11.9484L11.6436 9.54846C11.8602 9.45246 12 9.23703 12 9.00003V3.00009C12.0006 2.76249 11.8608 2.54773 11.6442 2.45173ZM6.00059 1.2565L9.9234 3.00009L8.85058 3.47652L4.92777 1.73352L6.00059 1.2565ZM6.00059 4.74309L2.07777 2.9995L3.45059 2.38932L7.3734 4.13291L6.00059 4.74309ZM1.20059 3.92286L5.40059 5.78949V10.4767L1.20059 8.61002V3.92286ZM6.60058 10.4767V5.78949L10.8006 3.92286V8.61002L6.60058 10.4767Z" fill="white"/>
</svg>
