<svg viewBox="0 0 12 12" fill="none" xmlns="http://www.w3.org/2000/svg">
<g opacity="0.5">
<path d="M6 9C6.33138 9 6.6 8.73138 6.6 8.4C6.6 8.06862 6.33138 7.8 6 7.8C5.66862 7.8 5.4 8.06862 5.4 8.4C5.4 8.73138 5.66862 9 6 9Z" fill="white"/>
<path d="M10.8 6C10.8 3.34903 8.65099 1.19999 6 1.19999C3.34903 1.19999 1.19999 3.34903 1.19999 6C1.19999 8.65099 3.34903 10.8 6 10.8C8.65099 10.8 10.8 8.65099 10.8 6ZM6 7.2C6.66275 7.2 7.2 7.73725 7.20001 8.4C7.20001 9.06275 6.66275 9.6 6 9.6C5.33725 9.6 4.79999 9.06275 4.79999 8.4C4.8 7.73725 5.33725 7.2 6 7.2ZM6.30001 2.4C7.4161 2.4 8.21501 2.98098 8.45192 3.81017C8.68232 4.61657 8.32304 5.50929 7.46834 5.93665C6.98446 6.17859 6.7786 6.45944 6.68666 6.64332C6.63857 6.7395 6.61682 6.81905 6.6071 6.86767C6.60252 6.89058 6.60067 6.90634 6.59999 6.91331V7.20001H5.40001V6.9H6C5.40056 6.9 5.40001 6.89961 5.40001 6.89921V6.8967C5.40001 6.89554 5.40003 6.89432 5.40004 6.89304C5.40007 6.89048 5.4001 6.88767 5.40016 6.88464C5.40029 6.87857 5.40052 6.87158 5.40087 6.86368C5.40155 6.84791 5.40274 6.82851 5.4048 6.80583C5.40892 6.76052 5.41651 6.70179 5.4304 6.63234C5.45817 6.49346 5.51144 6.31049 5.61335 6.10666C5.82141 5.69055 6.21556 5.2214 6.93168 4.86334C7.27697 4.6907 7.36769 4.38342 7.29809 4.13983C7.235 3.91901 6.98391 3.60001 6.30001 3.6C5.60328 3.6 5.35227 3.87074 5.2395 4.05869C5.17148 4.17205 5.13508 4.29026 5.11647 4.38329C5.10738 4.42872 5.1032 4.46488 5.10132 4.48679C5.10046 4.49677 5.10013 4.5035 5.1 4.50646V4.79999H3.89999V4.5L4.5 4.5C3.90359 4.5 3.90001 4.49965 3.89999 4.49928C3.89999 4.49915 3.89999 4.49877 3.89999 4.49851C3.89999 4.498 3.90001 4.49746 3.90001 4.49689C3.90002 4.49576 3.90001 4.49453 3.90003 4.4932C3.90005 4.49055 3.9001 4.48749 3.90017 4.48408C3.9003 4.47725 3.90053 4.46891 3.90092 4.45917C3.9017 4.4397 3.90312 4.41447 3.90571 4.38431C3.91086 4.32418 3.92073 4.24314 3.93977 4.14795C3.97742 3.95973 4.05353 3.70294 4.21051 3.44131C4.54774 2.87925 5.19674 2.4 6.30001 2.4ZM12 6C12 9.31373 9.31373 12 6 12C2.68629 12 0 9.31374 0 6C0 2.68629 2.68629 0 6 0C9.31374 0 12 2.68629 12 6Z" fill="white"/>
</g>
</svg>
