<svg viewBox="0 0 10 10" fill="none" xmlns="http://www.w3.org/2000/svg">
<path d="M10 5.83333V4.16667H8.215C8.13667 3.86417 8.01668 3.57999 7.86084 3.31749L9.12501 2.05332L7.94668 0.87499L6.68251 2.13915C6.42001 1.98416 6.13583 1.86333 5.83333 1.785V0H4.16667V1.785C3.86417 1.86333 3.57999 1.98332 3.31749 2.13915L2.05332 0.87499L0.87499 2.05332L2.13915 3.31749C1.98416 3.57999 1.86333 3.86417 1.785 4.16667H0V5.83333H1.785C1.86333 6.13583 1.98332 6.42001 2.13915 6.68251L0.87499 7.94668L2.05332 9.12501L3.31749 7.86084C3.57999 8.01584 3.86417 8.13667 4.16667 8.215V10H5.83333V8.215C6.13583 8.13667 6.42001 8.01668 6.68251 7.86084L7.94668 9.12501L9.12501 7.94668L7.86084 6.68251C8.01584 6.42001 8.13667 6.13667 8.215 5.83333H10ZM5 6.66667C4.08083 6.66667 3.33333 5.91917 3.33333 5C3.33333 4.08167 4.08083 3.33333 5 3.33333C5.91917 3.33333 6.66667 4.08167 6.66667 5C6.66667 5.91917 5.91917 6.66667 5 6.66667Z" fill="#67707B"/>
</svg>
