<svg viewBox="0 0 15 12" fill="none" xmlns="http://www.w3.org/2000/svg">
<path d="M0 4.3654C0 1.95445 1.97472 0 4.41066 0H8.75909L7.27367 2.30769H4.41066C3.26243 2.30769 2.33162 3.22894 2.33162 4.3654C2.33162 5.50182 3.26243 6.42307 4.41066 6.42307H8.60943L5.01969 12H2.25512L4.35962 8.73047C1.9472 8.70343 0 6.75945 0 4.3654Z" fill="white"/>
<path d="M10.5893 5.57692C11.7376 5.57692 12.6684 6.49817 12.6684 7.63462C12.6684 8.77104 11.7376 9.69229 10.5893 9.69229H7.72516L6.23975 12H10.5893C13.0253 12 15 10.0455 15 7.63462C15 5.24014 13.0522 3.29595 10.6392 3.26949L12.7437 0H9.97911L6.3894 5.57692H10.5893Z" fill="white"/>
</svg>
