<svg viewBox="0 0 12 12" fill="none" xmlns="http://www.w3.org/2000/svg">
<path d="M10.2 4.33333C11.1924 4.33333 12 3.58556 12 2.66667C12 1.74778 11.1924 1 10.2 1C9.4188 1 8.7594 1.46556 8.511 2.11111H0V3.22222H8.511C8.7594 3.86778 9.4188 4.33333 10.2 4.33333ZM10.2 2.11111C10.5306 2.11111 10.8 2.36 10.8 2.66667C10.8 2.97333 10.5306 3.22222 10.2 3.22222C9.8694 3.22222 9.6 2.97333 9.6 2.66667C9.6 2.36 9.8694 2.11111 10.2 2.11111Z" fill="white"/>
<path d="M4.2 4.33333C3.4188 4.33333 2.7594 4.79889 2.511 5.44444H0V6.55556H2.511C2.7594 7.20111 3.4194 7.66667 4.2 7.66667C4.9806 7.66667 5.6406 7.20111 5.889 6.55556H12V5.44444H5.889C5.6406 4.79889 4.9812 4.33333 4.2 4.33333ZM4.2 6.55556C3.8694 6.55556 3.6 6.30667 3.6 6C3.6 5.69333 3.8694 5.44444 4.2 5.44444C4.5306 5.44444 4.8 5.69333 4.8 6C4.8 6.30667 4.5306 6.55556 4.2 6.55556Z" fill="white"/>
<path d="M10.2 7.66667C9.4188 7.66667 8.7594 8.13222 8.511 8.77778H0V9.88889H8.511C8.7594 10.5344 9.4194 11 10.2 11C11.1924 11 12 10.2522 12 9.33333C12 8.41444 11.1924 7.66667 10.2 7.66667ZM10.2 9.88889C9.8694 9.88889 9.6 9.64 9.6 9.33333C9.6 9.02667 9.8694 8.77778 10.2 8.77778C10.5306 8.77778 10.8 9.02667 10.8 9.33333C10.8 9.64 10.5306 9.88889 10.2 9.88889Z" fill="white"/>
</svg>
