<svg viewBox="0 0 12 12" fill="none" xmlns="http://www.w3.org/2000/svg">
<path d="M12 11H7.68697C5.8397 11 4.33674 9.71857 4.33674 8.14286C4.33674 6.56714 5.8397 5.28571 7.68697 5.28571C9.53423 5.28571 11.0372 6.56714 11.0372 8.14286C11.0372 8.53476 10.9418 8.92288 10.7599 9.28049L12 11ZM7.68697 6.2381C6.40821 6.2381 5.36758 7.09238 5.36758 8.14286C5.36758 9.19333 6.40821 10.0476 7.68697 10.0476H10.0744L9.5466 9.31572L9.72082 9.05571C9.91049 8.77285 10.0064 8.46571 10.0064 8.14286C10.0064 7.09238 8.96572 6.2381 7.68697 6.2381Z" fill="white"/>
<path d="M3.3059 8.61905H0L1.94571 6.82191C1.48544 6.21858 1.24422 5.53095 1.24422 4.80952C1.24422 2.70905 3.32549 1 5.883 1C8.18589 1 10.161 2.41002 10.4774 4.28049L9.45898 4.42762C9.22034 3.01667 7.68285 1.95288 5.883 1.95288C3.89348 1.95288 2.27506 3.2343 2.27506 4.81002C2.27506 5.43907 2.53277 6.03763 3.01933 6.54144L3.34404 6.87716L2.48845 7.66716H3.3059V8.61905Z" fill="white"/>
</svg>
