<svg viewBox="0 0 12 12" fill="none" xmlns="http://www.w3.org/2000/svg">
<path opacity="0.5" fill-rule="evenodd" clip-rule="evenodd" d="M11.9769 2.1927C12.1496 1.42418 11.3227 0.785513 10.5211 1.06826L0.694894 4.5341C-0.200306 4.84985 -0.240194 5.99263 0.631164 6.35974L2.77104 7.26139L3.78901 10.5139C3.84188 10.6829 3.98874 10.8137 4.17506 10.8578C4.36137 10.9018 4.55933 10.8526 4.69542 10.7284L6.26349 9.29685L8.46007 10.8008C9.09769 11.2374 10.016 10.9194 10.1762 10.2066L11.9769 2.1927ZM1.08644 5.45924L10.9127 1.99341L9.11192 10.0074L6.53847 8.24535C6.32222 8.09727 6.01959 8.11691 5.82844 8.29142L5.15682 8.90455L5.35862 7.89138L9.31269 4.2817C9.50515 4.10602 9.52547 3.82747 9.36028 3.63004C9.19509 3.4326 8.8954 3.37722 8.6591 3.50048L3.1984 6.34908L1.08644 5.45924ZM3.86422 7.14406L4.19361 8.19655L4.32008 7.56155C4.33984 7.46233 4.39229 7.37093 4.47042 7.29962L5.67629 6.19883L3.86422 7.14406Z" fill="white"/>
</svg>
